<svg xmlns="http://www.w3.org/2000/svg" width="13" height="14" viewBox="0 0 13 14" fill="none">
  <g clip-path="url(#clip0_3_324)">
    <path d="M6.27649 0.729492C8.34904 0.729492 10.1796 1.78588 11.258 3.38846L11.259 3.38985C11.2794 3.41545 11.2974 3.44224 11.3128 3.46993C11.9218 4.40899 12.2765 5.52862 12.2765 6.72949C12.2765 10.0281 9.60085 12.7134 6.30611 12.7295C6.30381 12.7296 6.30144 12.7296 6.29907 12.7296L6.27649 12.7295C2.96798 12.7295 0.276489 10.038 0.276489 6.72949C0.276489 3.42118 2.96798 0.729492 6.27649 0.729492ZM6.27649 1.89075C6.0806 1.89075 5.88738 1.90245 5.69751 1.92519C5.67404 2.01922 5.62545 2.10777 5.55299 2.18188L4.02806 3.74261C3.91673 3.8565 3.76627 3.91747 3.61265 3.91747C3.54401 3.91747 3.47497 3.90527 3.40829 3.8803C3.19272 3.79906 3.0454 3.59824 3.03301 3.36812L3.02093 3.15272C2.04877 4.03836 1.43774 5.31391 1.43774 6.72949C1.43774 7.0106 1.46184 7.28617 1.50807 7.55428L2.39558 8.29085C2.40463 8.29813 2.41348 8.306 2.42213 8.31406L3.1963 9.03984C3.26652 9.10554 3.31923 9.18775 3.34972 9.27921L3.65282 10.1848L4.10992 10.4071H5.13782C5.29163 10.4071 5.43934 10.468 5.54831 10.577L6.5327 11.5616C9.08216 11.4279 11.1152 9.31164 11.1152 6.72949C11.1152 5.97807 10.9431 5.2661 10.6361 4.63096L9.73365 5.35163L9.90104 5.71767C9.93605 5.79359 9.95375 5.876 9.95375 5.9594V6.71331C9.95375 6.88561 9.87724 7.04905 9.74506 7.1594C9.61269 7.26954 9.43803 7.31577 9.26868 7.28449L8.33205 7.11298L8.80292 8.39402C8.85996 8.54901 8.84816 8.72091 8.77066 8.86686L7.94811 10.4152C7.8586 10.5838 7.69277 10.6962 7.50618 10.7191L7.43515 10.7234C7.22036 10.7234 7.02308 10.6046 6.92238 10.4148L6.5288 9.67289C6.52212 9.65991 6.51562 9.64673 6.50972 9.63335L6.18676 8.8938L5.79869 8.35959L4.43092 8.54665C4.33159 8.56022 4.23029 8.54802 4.13706 8.51065L2.9646 8.04312C2.74175 7.95402 2.59659 7.73747 2.59893 7.49751L2.61528 5.9533C2.61744 5.75582 2.71953 5.5731 2.88671 5.46787L4.85203 4.23188C5.08707 4.08416 5.3943 4.1233 5.5845 4.32609L6.23554 5.01942L7.05829 5.33609L7.32952 5.23912L6.1783 3.5948C6.05498 3.41857 6.03905 3.18864 6.137 2.99726L6.69381 1.90858C6.55625 1.89677 6.41706 1.89075 6.27649 1.89075Z" fill="#8F8F8F"/>
  </g>
  <defs>
    <clipPath id="clip0_3_324">
      <rect width="12" height="13" fill="white" transform="translate(0.276489 0.105469)"/>
    </clipPath>
  </defs>
</svg>